<svg xmlns="http://www.w3.org/2000/svg" viewBox="0 0 960 300" width="960" height="300" font-family="Helvetica, Arial, sans-serif"><style>use,line,polyline{stroke-linecap:round;stroke-linejoin:round}text{white-space:pre}</style><rect width="960" height="300" fill="white"/><defs><path id="cf" d="M15,90 L17,90 L19,90 L21,90 L23,90 L25,89 L27,89 L29,88 L31,88 L33,87 L35,87 L37,87 L39,86 L41,86 L43,86 L45,87 L47,87 L49,88 L51,89 L53,90 L55,91 L57,92 L59,93 L61,95 L63,97 L65,98 L67,100 L69,102 L71,104 L73,105 L75,107 L77,108 L79,109 L81,110 L83,111 L85,112 L87,112 L89,112 L91,112 L93,111 L95,111 L97,110 L99,109 L101,108 L103,106 L105,104 L107,103 L109,101 L111,99 L113,97 L115,96 L117,94 L119,92 L121,91 L123,89 L125,88 L127,87 L129,86 L131,85 L133,85 L135,84 L137,84 L139,84 L141,84 L143,85 L145,85 L147,85 L149,86 L151,86 L153,87 L155,87 L157,87 L159,87 L161,88 L163,87 L165,87 L167,87 L169,86 L171,85 L173,84 L175,82 L177,81 L179,79 L181,77 L183,75 L185,73 L187,71 L189,68 L191,66 L193,64 L195,61 L197,59 L199,57 L201,55 L203,53 L205,52 L207,50 L209,49 L211,48 L213,47 L215,47 L217,47 L219,47 L221,47 L223,47 L225,48 L227,48 L229,49 L231,50 L233,51 L235,52 L237,53 L239,53 L241,54 L243,55 L245,55 L247,56 L249,56 L251,56 L253,56 L255,56 L257,55 L259,55 L261,54 L263,53 L265,52 L267,51 L269,50 L271,49 L273,48 L275,47 L277,46 L279,45 L281,44 L283,43 L285,43 L287,43 L289,43 L291,43 L293,43 L295,44 L297,45 L299,46 L301,47 L303,49 L305,51 L307,52 L309,55 L311,57 L313,59 L315,61 L317,63 L319,66 L321,68 L323,70 L325,72 L327,73 L329,75 L331,76 L333,78 L335,79 L337,79 L339,80 L341,80 L343,81 L345,81 L347,81 L349,80 L351,80 L353,80 L355,79 L357,79 L359,79 L361,78 L363,78 L365,78 L367,78 L369,79 L371,79 L373,79 L375,80 L377,81 L379,82 L381,84 L383,85 L385,87 L387,89 L389,91 L391,93 L393,95 L395,97 L397,99 L399,101 L401,102 L403,104 L404,105"/><path id="ca" d="M15,90 L17,90 L19,90 L21,90 L23,90 L25,89 L27,89 L29,88 L31,88 L33,87 L35,87 L37,87 L39,86 L41,86 L43,86 L45,87 L47,87 L49,88 L51,89 L53,90 L55,91 L57,92 L59,93 L61,95 L63,97 L65,98 L67,100 L69,102 L71,104 L73,105 L75,107 L77,108 L79,109 L81,110 L83,111 L85,112 L87,112 L89,112 L91,112 L93,111 L95,111 L97,110 L99,109 L101,108 L103,106 L105,104 L107,103 L109,101 L111,99 L113,97 L115,96 L117,94 L119,92 L121,91 L123,89 L125,88 L127,87 L129,86 L131,85 L133,85 L135,84 L137,84 L139,84 L141,84 L143,85 L145,85 L147,85 L149,86"/><path id="cb" d="M185,73 L187,71 L189,68 L191,66 L193,64 L195,61 L197,59 L199,57 L201,55 L203,53 L205,52 L207,50 L209,49 L211,48 L213,47 L215,47 L217,47 L219,47 L221,47 L223,47 L225,48 L227,48 L229,49 L231,50 L233,51 L235,52 L237,53 L239,53 L241,54 L243,55 L245,55 L247,56 L249,56 L251,56 L253,56 L255,56 L257,55 L259,55 L261,54 L263,53 L265,52 L267,51 L269,50 L271,49 L273,48 L275,47 L277,46 L279,45 L281,44 L283,43 L285,43 L287,43 L289,43 L291,43 L293,43 L295,44 L297,45 L299,46 L301,47 L303,49 L305,51 L307,52 L309,55 L311,57 L313,59 L315,61 L317,63 L319,66 L321,68 L323,70 L325,72 L327,73 L329,75 L331,76 L333,78 L335,79 L337,79 L339,80 L341,80 L343,81 L345,81 L347,81 L349,80 L351,80 L353,80 L355,79 L357,79 L359,79 L361,78 L363,78 L365,78 L367,78 L369,79 L371,79 L373,79 L375,80 L377,81 L379,82 L381,84 L383,85 L385,87 L387,89 L389,91 L391,93 L393,95 L395,97 L397,99 L399,101 L401,102 L403,104 L404,105"/></defs><g opacity="1"><animate attributeName="opacity" values="1;0" keyTimes="0;0.17333" calcMode="discrete" dur="7.5s" repeatCount="indefinite"/><text x="14" y="30" font-size="17" font-weight="bold">Errors: 0 stray fragments added to the prediction</text><rect x="14" y="58" width="525" height="187.5" fill="#D4D4D2" stroke="#999" stroke-width="0.8"/><use href="#cf" transform="translate(14,58.00) scale(1.25)" fill="none" stroke="#0072B2" stroke-width="5" stroke-opacity="0.85"/><rect x="14" y="257" width="13" height="13" fill="#0072B2"/><text x="33" y="268" font-size="13">prediction (same as ground truth)</text><rect x="299.20000000000005" y="257" width="13" height="13" fill="#E31A6D"/><text x="318.20000000000005" y="268" font-size="13">stray fragments added</text><rect x="640" y="78" width="290" height="170" fill="white" stroke="#333" stroke-width="1"/><line x1="640" x2="930" y1="163" y2="163" stroke="#DDD"/><line x1="640" x2="640" y1="78" y2="248" stroke="#DDD"/><text x="640" y="266" font-size="13" text-anchor="middle">0</text><line x1="785" x2="785" y1="78" y2="248" stroke="#DDD"/><text x="785" y="266" font-size="13" text-anchor="middle">10</text><line x1="930" x2="930" y1="78" y2="248" stroke="#DDD"/><text x="930" y="266" font-size="13" text-anchor="middle">20</text><text x="634" y="253" font-size="13" text-anchor="end">0</text><text x="634" y="168" font-size="13" text-anchor="end">0.5</text><text x="634" y="83" font-size="13" text-anchor="end">1</text><text x="785" y="286" font-size="13.5" text-anchor="middle">number of fragments</text><polyline points="640,78" fill="none" stroke="#000" stroke-width="1.6"/><rect x="636.4" y="74.4" width="7.2" height="7.2" fill="#000"/><polyline points="640,78" fill="none" stroke="#0072B2" stroke-width="2.6"/><circle cx="640" cy="78" r="4.2" fill="#0072B2"/><rect x="650" y="202" width="84" height="40" fill="white" fill-opacity="0.9" stroke="#BBB"/><line x1="658" x2="680" y1="215" y2="215" stroke="#0072B2" stroke-width="2.6"/><circle cx="669" cy="215" r="4" fill="#0072B2"/><text x="686" y="220" font-size="13">SLICE</text><line x1="658" x2="680" y1="232" y2="232" stroke="#000" stroke-width="1.6"/><rect x="665.5" y="228.5" width="7" height="7" fill="#000"/><text x="686" y="237" font-size="13">IoU</text><text x="640" y="52" font-size="16">SLICE 1.00   IoU 1.00</text></g><g opacity="0"><animate attributeName="opacity" values="0;1;0" keyTimes="0;0.17333;0.34667" calcMode="discrete" dur="7.5s" repeatCount="indefinite"/><text x="14" y="30" font-size="17" font-weight="bold">Errors: 6 stray fragments added to the prediction</text><rect x="14" y="58" width="525" height="187.5" fill="#D4D4D2" stroke="#999" stroke-width="0.8"/><use href="#cf" transform="translate(14,58.00) scale(1.25)" fill="none" stroke="#0072B2" stroke-width="5" stroke-opacity="0.85"/><line x1="326.5" y1="225.5" x2="351.5" y2="228" stroke="#E31A6D" stroke-width="3.75" stroke-opacity="0.95"/><line x1="399" y1="164.2" x2="414" y2="169.2" stroke="#E31A6D" stroke-width="3.75" stroke-opacity="0.95"/><line x1="170.2" y1="76.8" x2="195.2" y2="73" stroke="#E31A6D" stroke-width="3.75" stroke-opacity="0.95"/><line x1="29" y1="220.5" x2="52.8" y2="220.5" stroke="#E31A6D" stroke-width="3.75" stroke-opacity="0.95"/><line x1="409" y1="89.2" x2="427.8" y2="83" stroke="#E31A6D" stroke-width="3.75" stroke-opacity="0.95"/><line x1="171.5" y1="204.2" x2="187.8" y2="201.8" stroke="#E31A6D" stroke-width="3.75" stroke-opacity="0.95"/><rect x="14" y="257" width="13" height="13" fill="#0072B2"/><text x="33" y="268" font-size="13">prediction (same as ground truth)</text><rect x="299.20000000000005" y="257" width="13" height="13" fill="#E31A6D"/><text x="318.20000000000005" y="268" font-size="13">stray fragments added</text><rect x="640" y="78" width="290" height="170" fill="white" stroke="#333" stroke-width="1"/><line x1="640" x2="930" y1="163" y2="163" stroke="#DDD"/><line x1="640" x2="640" y1="78" y2="248" stroke="#DDD"/><text x="640" y="266" font-size="13" text-anchor="middle">0</text><line x1="785" x2="785" y1="78" y2="248" stroke="#DDD"/><text x="785" y="266" font-size="13" text-anchor="middle">10</text><line x1="930" x2="930" y1="78" y2="248" stroke="#DDD"/><text x="930" y="266" font-size="13" text-anchor="middle">20</text><text x="634" y="253" font-size="13" text-anchor="end">0</text><text x="634" y="168" font-size="13" text-anchor="end">0.5</text><text x="634" y="83" font-size="13" text-anchor="end">1</text><text x="785" y="286" font-size="13.5" text-anchor="middle">number of fragments</text><polyline points="640,78 727,86.6" fill="none" stroke="#000" stroke-width="1.6"/><rect x="636.4" y="74.4" width="7.2" height="7.2" fill="#000"/><rect x="723.4" y="83" width="7.2" height="7.2" fill="#000"/><polyline points="640,78 727,113.9" fill="none" stroke="#0072B2" stroke-width="2.6"/><circle cx="640" cy="78" r="4.2" fill="#0072B2"/><circle cx="727" cy="113.9" r="4.2" fill="#0072B2"/><rect x="650" y="202" width="84" height="40" fill="white" fill-opacity="0.9" stroke="#BBB"/><line x1="658" x2="680" y1="215" y2="215" stroke="#0072B2" stroke-width="2.6"/><circle cx="669" cy="215" r="4" fill="#0072B2"/><text x="686" y="220" font-size="13">SLICE</text><line x1="658" x2="680" y1="232" y2="232" stroke="#000" stroke-width="1.6"/><rect x="665.5" y="228.5" width="7" height="7" fill="#000"/><text x="686" y="237" font-size="13">IoU</text><text x="640" y="52" font-size="16">SLICE 0.79   IoU 0.95</text></g><g opacity="0"><animate attributeName="opacity" values="0;1;0" keyTimes="0;0.34667;0.52000" calcMode="discrete" dur="7.5s" repeatCount="indefinite"/><text x="14" y="30" font-size="17" font-weight="bold">Errors: 12 stray fragments added to the prediction</text><rect x="14" y="58" width="525" height="187.5" fill="#D4D4D2" stroke="#999" stroke-width="0.8"/><use href="#cf" transform="translate(14,58.00) scale(1.25)" fill="none" stroke="#0072B2" stroke-width="5" stroke-opacity="0.85"/><line x1="326.5" y1="225.5" x2="351.5" y2="228" stroke="#E31A6D" stroke-width="3.75" stroke-opacity="0.95"/><line x1="399" y1="164.2" x2="414" y2="169.2" stroke="#E31A6D" stroke-width="3.75" stroke-opacity="0.95"/><line x1="170.2" y1="76.8" x2="195.2" y2="73" stroke="#E31A6D" stroke-width="3.75" stroke-opacity="0.95"/><line x1="29" y1="220.5" x2="52.8" y2="220.5" stroke="#E31A6D" stroke-width="3.75" stroke-opacity="0.95"/><line x1="409" y1="89.2" x2="427.8" y2="83" stroke="#E31A6D" stroke-width="3.75" stroke-opacity="0.95"/><line x1="171.5" y1="204.2" x2="187.8" y2="201.8" stroke="#E31A6D" stroke-width="3.75" stroke-opacity="0.95"/><line x1="149" y1="188" x2="167.8" y2="195.5" stroke="#E31A6D" stroke-width="3.75" stroke-opacity="0.95"/><line x1="269" y1="148" x2="289" y2="149.2" stroke="#E31A6D" stroke-width="3.75" stroke-opacity="0.95"/><line x1="505.2" y1="153" x2="529" y2="158" stroke="#E31A6D" stroke-width="3.75" stroke-opacity="0.95"/><line x1="325.2" y1="184.2" x2="351.5" y2="181.8" stroke="#E31A6D" stroke-width="3.75" stroke-opacity="0.95"/><line x1="129" y1="145.5" x2="142.8" y2="150.5" stroke="#E31A6D" stroke-width="3.75" stroke-opacity="0.95"/><line x1="320.2" y1="210.5" x2="332.8" y2="204.2" stroke="#E31A6D" stroke-width="3.75" stroke-opacity="0.95"/><rect x="14" y="257" width="13" height="13" fill="#0072B2"/><text x="33" y="268" font-size="13">prediction (same as ground truth)</text><rect x="299.20000000000005" y="257" width="13" height="13" fill="#E31A6D"/><text x="318.20000000000005" y="268" font-size="13">stray fragments added</text><rect x="640" y="78" width="290" height="170" fill="white" stroke="#333" stroke-width="1"/><line x1="640" x2="930" y1="163" y2="163" stroke="#DDD"/><line x1="640" x2="640" y1="78" y2="248" stroke="#DDD"/><text x="640" y="266" font-size="13" text-anchor="middle">0</text><line x1="785" x2="785" y1="78" y2="248" stroke="#DDD"/><text x="785" y="266" font-size="13" text-anchor="middle">10</text><line x1="930" x2="930" y1="78" y2="248" stroke="#DDD"/><text x="930" y="266" font-size="13" text-anchor="middle">20</text><text x="634" y="253" font-size="13" text-anchor="end">0</text><text x="634" y="168" font-size="13" text-anchor="end">0.5</text><text x="634" y="83" font-size="13" text-anchor="end">1</text><text x="785" y="286" font-size="13.5" text-anchor="middle">number of fragments</text><polyline points="640,78 727,86.6 814,93.8" fill="none" stroke="#000" stroke-width="1.6"/><rect x="636.4" y="74.4" width="7.2" height="7.2" fill="#000"/><rect x="723.4" y="83" width="7.2" height="7.2" fill="#000"/><rect x="810.4" y="90.2" width="7.2" height="7.2" fill="#000"/><polyline points="640,78 727,113.9 814,136" fill="none" stroke="#0072B2" stroke-width="2.6"/><circle cx="640" cy="78" r="4.2" fill="#0072B2"/><circle cx="727" cy="113.9" r="4.2" fill="#0072B2"/><circle cx="814" cy="136" r="4.2" fill="#0072B2"/><rect x="650" y="202" width="84" height="40" fill="white" fill-opacity="0.9" stroke="#BBB"/><line x1="658" x2="680" y1="215" y2="215" stroke="#0072B2" stroke-width="2.6"/><circle cx="669" cy="215" r="4" fill="#0072B2"/><text x="686" y="220" font-size="13">SLICE</text><line x1="658" x2="680" y1="232" y2="232" stroke="#000" stroke-width="1.6"/><rect x="665.5" y="228.5" width="7" height="7" fill="#000"/><text x="686" y="237" font-size="13">IoU</text><text x="640" y="52" font-size="16">SLICE 0.66   IoU 0.91</text></g><g opacity="0"><animate attributeName="opacity" values="0;1" keyTimes="0;0.52000" calcMode="discrete" dur="7.5s" repeatCount="indefinite"/><text x="14" y="30" font-size="17" font-weight="bold">Errors: 20 stray fragments added to the prediction</text><rect x="14" y="58" width="525" height="187.5" fill="#D4D4D2" stroke="#999" stroke-width="0.8"/><use href="#cf" transform="translate(14,58.00) scale(1.25)" fill="none" stroke="#0072B2" stroke-width="5" stroke-opacity="0.85"/><line x1="326.5" y1="225.5" x2="351.5" y2="228" stroke="#E31A6D" stroke-width="3.75" stroke-opacity="0.95"/><line x1="399" y1="164.2" x2="414" y2="169.2" stroke="#E31A6D" stroke-width="3.75" stroke-opacity="0.95"/><line x1="170.2" y1="76.8" x2="195.2" y2="73" stroke="#E31A6D" stroke-width="3.75" stroke-opacity="0.95"/><line x1="29" y1="220.5" x2="52.8" y2="220.5" stroke="#E31A6D" stroke-width="3.75" stroke-opacity="0.95"/><line x1="409" y1="89.2" x2="427.8" y2="83" stroke="#E31A6D" stroke-width="3.75" stroke-opacity="0.95"/><line x1="171.5" y1="204.2" x2="187.8" y2="201.8" stroke="#E31A6D" stroke-width="3.75" stroke-opacity="0.95"/><line x1="149" y1="188" x2="167.8" y2="195.5" stroke="#E31A6D" stroke-width="3.75" stroke-opacity="0.95"/><line x1="269" y1="148" x2="289" y2="149.2" stroke="#E31A6D" stroke-width="3.75" stroke-opacity="0.95"/><line x1="505.2" y1="153" x2="529" y2="158" stroke="#E31A6D" stroke-width="3.75" stroke-opacity="0.95"/><line x1="325.2" y1="184.2" x2="351.5" y2="181.8" stroke="#E31A6D" stroke-width="3.75" stroke-opacity="0.95"/><line x1="129" y1="145.5" x2="142.8" y2="150.5" stroke="#E31A6D" stroke-width="3.75" stroke-opacity="0.95"/><line x1="320.2" y1="210.5" x2="332.8" y2="204.2" stroke="#E31A6D" stroke-width="3.75" stroke-opacity="0.95"/><line x1="42.8" y1="141.8" x2="62.8" y2="135.5" stroke="#E31A6D" stroke-width="3.75" stroke-opacity="0.95"/><line x1="250.2" y1="230.5" x2="276.5" y2="235.5" stroke="#E31A6D" stroke-width="3.75" stroke-opacity="0.95"/><line x1="329" y1="205.5" x2="349" y2="204.2" stroke="#E31A6D" stroke-width="3.75" stroke-opacity="0.95"/><line x1="265.2" y1="111.8" x2="280.2" y2="109.2" stroke="#E31A6D" stroke-width="3.75" stroke-opacity="0.95"/><line x1="31.5" y1="234.2" x2="46.5" y2="228" stroke="#E31A6D" stroke-width="3.75" stroke-opacity="0.95"/><line x1="359" y1="229.2" x2="374" y2="235.5" stroke="#E31A6D" stroke-width="3.75" stroke-opacity="0.95"/><line x1="204" y1="188" x2="216.5" y2="188" stroke="#E31A6D" stroke-width="3.75" stroke-opacity="0.95"/><line x1="425.2" y1="170.5" x2="439" y2="173" stroke="#E31A6D" stroke-width="3.75" stroke-opacity="0.95"/><rect x="14" y="257" width="13" height="13" fill="#0072B2"/><text x="33" y="268" font-size="13">prediction (same as ground truth)</text><rect x="299.20000000000005" y="257" width="13" height="13" fill="#E31A6D"/><text x="318.20000000000005" y="268" font-size="13">stray fragments added</text><rect x="640" y="78" width="290" height="170" fill="white" stroke="#333" stroke-width="1"/><line x1="640" x2="930" y1="163" y2="163" stroke="#DDD"/><line x1="640" x2="640" y1="78" y2="248" stroke="#DDD"/><text x="640" y="266" font-size="13" text-anchor="middle">0</text><line x1="785" x2="785" y1="78" y2="248" stroke="#DDD"/><text x="785" y="266" font-size="13" text-anchor="middle">10</text><line x1="930" x2="930" y1="78" y2="248" stroke="#DDD"/><text x="930" y="266" font-size="13" text-anchor="middle">20</text><text x="634" y="253" font-size="13" text-anchor="end">0</text><text x="634" y="168" font-size="13" text-anchor="end">0.5</text><text x="634" y="83" font-size="13" text-anchor="end">1</text><text x="785" y="286" font-size="13.5" text-anchor="middle">number of fragments</text><polyline points="640,78 727,86.6 814,93.8 930,101.5" fill="none" stroke="#000" stroke-width="1.6"/><rect x="636.4" y="74.4" width="7.2" height="7.2" fill="#000"/><rect x="723.4" y="83" width="7.2" height="7.2" fill="#000"/><rect x="810.4" y="90.2" width="7.2" height="7.2" fill="#000"/><rect x="926.4" y="97.9" width="7.2" height="7.2" fill="#000"/><polyline points="640,78 727,113.9 814,136 930,154" fill="none" stroke="#0072B2" stroke-width="2.6"/><circle cx="640" cy="78" r="4.2" fill="#0072B2"/><circle cx="727" cy="113.9" r="4.2" fill="#0072B2"/><circle cx="814" cy="136" r="4.2" fill="#0072B2"/><circle cx="930" cy="154" r="4.2" fill="#0072B2"/><rect x="650" y="202" width="84" height="40" fill="white" fill-opacity="0.9" stroke="#BBB"/><line x1="658" x2="680" y1="215" y2="215" stroke="#0072B2" stroke-width="2.6"/><circle cx="669" cy="215" r="4" fill="#0072B2"/><text x="686" y="220" font-size="13">SLICE</text><line x1="658" x2="680" y1="232" y2="232" stroke="#000" stroke-width="1.6"/><rect x="665.5" y="228.5" width="7" height="7" fill="#000"/><text x="686" y="237" font-size="13">IoU</text><text x="640" y="52" font-size="16">SLICE 0.55   IoU 0.86</text></g></svg>
